<mxfile host="Electron" agent="Mozilla/5.0 (Windows NT 10.0; Win64; x64) AppleWebKit/537.36 (KHTML, like Gecko) draw.io/26.0.16 Chrome/132.0.6834.196 Electron/34.2.0 Safari/537.36" version="26.0.16">
  <diagram name="Page-1" id="52a04d89-c75d-2922-d76d-85b35f80e030">
    <mxGraphModel dx="1434" dy="1686" grid="1" gridSize="10" guides="1" tooltips="1" connect="1" arrows="1" fold="1" page="1" pageScale="1" pageWidth="1100" pageHeight="850" background="none" math="0" shadow="0">
      <root>
        <mxCell id="0" />
        <mxCell id="1" parent="0" />
        <mxCell id="KmEDqMZdyeYojV_IPIhg-30" value="Patients" style="swimlane;html=1;fontStyle=0;childLayout=stackLayout;horizontal=1;startSize=26;fillColor=#e0e0e0;horizontalStack=0;resizeParent=1;resizeLast=0;collapsible=1;marginBottom=0;swimlaneFillColor=#ffffff;align=center;rounded=1;shadow=0;comic=0;labelBackgroundColor=none;strokeWidth=1;fontFamily=Verdana;fontSize=12" parent="1" vertex="1">
          <mxGeometry x="40" width="160" height="110" as="geometry" />
        </mxCell>
        <mxCell id="KmEDqMZdyeYojV_IPIhg-31" value="Book/Cancel Appointments" style="text;html=1;strokeColor=none;fillColor=none;spacingLeft=4;spacingRight=4;whiteSpace=wrap;overflow=hidden;rotatable=0;points=[[0,0.5],[1,0.5]];portConstraint=eastwest;" parent="KmEDqMZdyeYojV_IPIhg-30" vertex="1">
          <mxGeometry y="26" width="160" height="26" as="geometry" />
        </mxCell>
        <mxCell id="KmEDqMZdyeYojV_IPIhg-32" value="Genrate Reports" style="text;html=1;strokeColor=none;fillColor=none;spacingLeft=4;spacingRight=4;whiteSpace=wrap;overflow=hidden;rotatable=0;points=[[0,0.5],[1,0.5]];portConstraint=eastwest;" parent="KmEDqMZdyeYojV_IPIhg-30" vertex="1">
          <mxGeometry y="52" width="160" height="26" as="geometry" />
        </mxCell>
        <mxCell id="KmEDqMZdyeYojV_IPIhg-33" value="Register Billing" style="text;html=1;strokeColor=none;fillColor=none;spacingLeft=4;spacingRight=4;whiteSpace=wrap;overflow=hidden;rotatable=0;points=[[0,0.5],[1,0.5]];portConstraint=eastwest;" parent="KmEDqMZdyeYojV_IPIhg-30" vertex="1">
          <mxGeometry y="78" width="160" height="26" as="geometry" />
        </mxCell>
        <mxCell id="KmEDqMZdyeYojV_IPIhg-39" value="IT Officers" style="swimlane;html=1;fontStyle=0;childLayout=stackLayout;horizontal=1;startSize=26;fillColor=#e0e0e0;horizontalStack=0;resizeParent=1;resizeLast=0;collapsible=1;marginBottom=0;swimlaneFillColor=#ffffff;align=center;rounded=1;shadow=0;comic=0;labelBackgroundColor=none;strokeWidth=1;fontFamily=Verdana;fontSize=12" parent="1" vertex="1">
          <mxGeometry x="40" y="160" width="160" height="110" as="geometry" />
        </mxCell>
        <mxCell id="KmEDqMZdyeYojV_IPIhg-40" value="Debug System" style="text;html=1;strokeColor=none;fillColor=none;spacingLeft=4;spacingRight=4;whiteSpace=wrap;overflow=hidden;rotatable=0;points=[[0,0.5],[1,0.5]];portConstraint=eastwest;" parent="KmEDqMZdyeYojV_IPIhg-39" vertex="1">
          <mxGeometry y="26" width="160" height="26" as="geometry" />
        </mxCell>
        <mxCell id="KmEDqMZdyeYojV_IPIhg-41" value="Manage Authentication" style="text;html=1;strokeColor=none;fillColor=none;spacingLeft=4;spacingRight=4;whiteSpace=wrap;overflow=hidden;rotatable=0;points=[[0,0.5],[1,0.5]];portConstraint=eastwest;" parent="KmEDqMZdyeYojV_IPIhg-39" vertex="1">
          <mxGeometry y="52" width="160" height="26" as="geometry" />
        </mxCell>
        <mxCell id="KmEDqMZdyeYojV_IPIhg-42" value="Restart System" style="text;html=1;strokeColor=none;fillColor=none;spacingLeft=4;spacingRight=4;whiteSpace=wrap;overflow=hidden;rotatable=0;points=[[0,0.5],[1,0.5]];portConstraint=eastwest;" parent="KmEDqMZdyeYojV_IPIhg-39" vertex="1">
          <mxGeometry y="78" width="160" height="26" as="geometry" />
        </mxCell>
        <mxCell id="KmEDqMZdyeYojV_IPIhg-43" value="Administrators" style="swimlane;html=1;fontStyle=0;childLayout=stackLayout;horizontal=1;startSize=26;fillColor=#e0e0e0;horizontalStack=0;resizeParent=1;resizeLast=0;collapsible=1;marginBottom=0;swimlaneFillColor=#ffffff;align=center;rounded=1;shadow=0;comic=0;labelBackgroundColor=none;strokeWidth=1;fontFamily=Verdana;fontSize=12" parent="1" vertex="1">
          <mxGeometry x="40" y="480" width="160" height="140" as="geometry" />
        </mxCell>
        <mxCell id="KmEDqMZdyeYojV_IPIhg-44" value="Generate Reports" style="text;html=1;strokeColor=none;fillColor=none;spacingLeft=4;spacingRight=4;whiteSpace=wrap;overflow=hidden;rotatable=0;points=[[0,0.5],[1,0.5]];portConstraint=eastwest;" parent="KmEDqMZdyeYojV_IPIhg-43" vertex="1">
          <mxGeometry y="26" width="160" height="26" as="geometry" />
        </mxCell>
        <mxCell id="KmEDqMZdyeYojV_IPIhg-45" value="Access Schedules" style="text;html=1;strokeColor=none;fillColor=none;spacingLeft=4;spacingRight=4;whiteSpace=wrap;overflow=hidden;rotatable=0;points=[[0,0.5],[1,0.5]];portConstraint=eastwest;" parent="KmEDqMZdyeYojV_IPIhg-43" vertex="1">
          <mxGeometry y="52" width="160" height="26" as="geometry" />
        </mxCell>
        <mxCell id="KmEDqMZdyeYojV_IPIhg-46" value="Register User" style="text;html=1;strokeColor=none;fillColor=none;spacingLeft=4;spacingRight=4;whiteSpace=wrap;overflow=hidden;rotatable=0;points=[[0,0.5],[1,0.5]];portConstraint=eastwest;" parent="KmEDqMZdyeYojV_IPIhg-43" vertex="1">
          <mxGeometry y="78" width="160" height="26" as="geometry" />
        </mxCell>
        <mxCell id="KmEDqMZdyeYojV_IPIhg-47" value="Manage Authentication" style="text;html=1;strokeColor=none;fillColor=none;spacingLeft=4;spacingRight=4;whiteSpace=wrap;overflow=hidden;rotatable=0;points=[[0,0.5],[1,0.5]];portConstraint=eastwest;" parent="KmEDqMZdyeYojV_IPIhg-43" vertex="1">
          <mxGeometry y="104" width="160" height="26" as="geometry" />
        </mxCell>
        <mxCell id="KmEDqMZdyeYojV_IPIhg-51" value="Doctors / Nurses" style="swimlane;html=1;fontStyle=0;childLayout=stackLayout;horizontal=1;startSize=26;fillColor=#e0e0e0;horizontalStack=0;resizeParent=1;resizeLast=0;collapsible=1;marginBottom=0;swimlaneFillColor=#ffffff;align=center;rounded=1;shadow=0;comic=0;labelBackgroundColor=none;strokeWidth=1;fontFamily=Verdana;fontSize=12" parent="1" vertex="1">
          <mxGeometry x="40" y="320" width="160" height="110" as="geometry" />
        </mxCell>
        <mxCell id="KmEDqMZdyeYojV_IPIhg-52" value="Access Schedules" style="text;html=1;strokeColor=none;fillColor=none;spacingLeft=4;spacingRight=4;whiteSpace=wrap;overflow=hidden;rotatable=0;points=[[0,0.5],[1,0.5]];portConstraint=eastwest;" parent="KmEDqMZdyeYojV_IPIhg-51" vertex="1">
          <mxGeometry y="26" width="160" height="26" as="geometry" />
        </mxCell>
        <mxCell id="KmEDqMZdyeYojV_IPIhg-53" value="Generate Reports" style="text;html=1;strokeColor=none;fillColor=none;spacingLeft=4;spacingRight=4;whiteSpace=wrap;overflow=hidden;rotatable=0;points=[[0,0.5],[1,0.5]];portConstraint=eastwest;" parent="KmEDqMZdyeYojV_IPIhg-51" vertex="1">
          <mxGeometry y="52" width="160" height="26" as="geometry" />
        </mxCell>
        <mxCell id="KmEDqMZdyeYojV_IPIhg-54" value="Prescribe Aid" style="text;html=1;strokeColor=none;fillColor=none;spacingLeft=4;spacingRight=4;whiteSpace=wrap;overflow=hidden;rotatable=0;points=[[0,0.5],[1,0.5]];portConstraint=eastwest;" parent="KmEDqMZdyeYojV_IPIhg-51" vertex="1">
          <mxGeometry y="78" width="160" height="26" as="geometry" />
        </mxCell>
        <mxCell id="KmEDqMZdyeYojV_IPIhg-82" value="APPOINTMENT&lt;br&gt;MANAGEMENT" style="shape=ellipse;html=1;dashed=0;whiteSpace=wrap;aspect=fixed;perimeter=ellipsePerimeter;" parent="1" vertex="1">
          <mxGeometry x="360" y="-70" width="120" height="120" as="geometry" />
        </mxCell>
        <mxCell id="KmEDqMZdyeYojV_IPIhg-83" value="RECORD&lt;br&gt;TRACKING" style="shape=ellipse;html=1;dashed=0;whiteSpace=wrap;aspect=fixed;perimeter=ellipsePerimeter;" parent="1" vertex="1">
          <mxGeometry x="360" y="90" width="120" height="120" as="geometry" />
        </mxCell>
        <mxCell id="KmEDqMZdyeYojV_IPIhg-84" value="SYSTEM MANAGEMENT" style="shape=ellipse;html=1;dashed=0;whiteSpace=wrap;aspect=fixed;perimeter=ellipsePerimeter;" parent="1" vertex="1">
          <mxGeometry x="360" y="250" width="120" height="120" as="geometry" />
        </mxCell>
        <mxCell id="KmEDqMZdyeYojV_IPIhg-85" value="USER&amp;nbsp;&lt;div&gt;BILLING&lt;br&gt;&lt;div&gt;INFORMATION&lt;/div&gt;&lt;div&gt;UPDATION&lt;/div&gt;&lt;/div&gt;" style="shape=ellipse;html=1;dashed=0;whiteSpace=wrap;aspect=fixed;perimeter=ellipsePerimeter;" parent="1" vertex="1">
          <mxGeometry x="360" y="410" width="120" height="120" as="geometry" />
        </mxCell>
        <mxCell id="KmEDqMZdyeYojV_IPIhg-86" value="SCHEDULING&lt;div&gt;MANAGEMENT&lt;/div&gt;" style="shape=ellipse;html=1;dashed=0;whiteSpace=wrap;aspect=fixed;perimeter=ellipsePerimeter;" parent="1" vertex="1">
          <mxGeometry x="360" y="570" width="120" height="120" as="geometry" />
        </mxCell>
        <mxCell id="KmEDqMZdyeYojV_IPIhg-87" value="1&amp;nbsp; &amp;nbsp; &amp;nbsp; &amp;nbsp;Patient Records" style="html=1;dashed=0;whiteSpace=wrap;shape=mxgraph.dfd.dataStoreID;align=left;spacingLeft=3;points=[[0,0],[0.5,0],[1,0],[0,0.5],[1,0.5],[0,1],[0.5,1],[1,1]];" parent="1" vertex="1">
          <mxGeometry x="600" y="80" width="240" height="70" as="geometry" />
        </mxCell>
        <mxCell id="KmEDqMZdyeYojV_IPIhg-89" value="2&lt;span style=&quot;white-space: pre;&quot;&gt;&#x9;&lt;/span&gt;&amp;nbsp;Admission Info and Room Plan" style="html=1;dashed=0;whiteSpace=wrap;shape=mxgraph.dfd.dataStoreID;align=left;spacingLeft=3;points=[[0,0],[0.5,0],[1,0],[0,0.5],[1,0.5],[0,1],[0.5,1],[1,1]];" parent="1" vertex="1">
          <mxGeometry x="600" y="200" width="240" height="75" as="geometry" />
        </mxCell>
        <mxCell id="KmEDqMZdyeYojV_IPIhg-90" value="3&lt;span style=&quot;white-space: pre;&quot;&gt;&#x9;&lt;/span&gt;&amp;nbsp;Pharmacy and Prescription Log" style="html=1;dashed=0;whiteSpace=wrap;shape=mxgraph.dfd.dataStoreID;align=left;spacingLeft=3;points=[[0,0],[0.5,0],[1,0],[0,0.5],[1,0.5],[0,1],[0.5,1],[1,1]];" parent="1" vertex="1">
          <mxGeometry x="600" y="330" width="240" height="75" as="geometry" />
        </mxCell>
        <mxCell id="KmEDqMZdyeYojV_IPIhg-91" value="4&lt;span style=&quot;white-space: pre;&quot;&gt;&#x9;&lt;/span&gt;&amp;nbsp;Employee Records" style="html=1;dashed=0;whiteSpace=wrap;shape=mxgraph.dfd.dataStoreID;align=left;spacingLeft=3;points=[[0,0],[0.5,0],[1,0],[0,0.5],[1,0.5],[0,1],[0.5,1],[1,1]];" parent="1" vertex="1">
          <mxGeometry x="600" y="460" width="240" height="80" as="geometry" />
        </mxCell>
        <mxCell id="KmEDqMZdyeYojV_IPIhg-95" value="&lt;font style=&quot;font-size: 28px;&quot;&gt;Data Outputs&lt;/font&gt;" style="shape=parallelogram;perimeter=parallelogramPerimeter;whiteSpace=wrap;html=1;dashed=0;aspect=fixed;" parent="1" vertex="1">
          <mxGeometry x="930" y="247.5" width="250" height="125" as="geometry" />
        </mxCell>
        <mxCell id="KmEDqMZdyeYojV_IPIhg-96" value="Database Entries" style="shape=cylinder;whiteSpace=wrap;html=1;boundedLbl=1;backgroundOutline=1;" parent="1" vertex="1">
          <mxGeometry x="650" y="-100" width="140" height="110" as="geometry" />
        </mxCell>
        <mxCell id="KmEDqMZdyeYojV_IPIhg-98" value="" style="endArrow=none;html=1;edgeStyle=orthogonalEdgeStyle;rounded=0;exitX=1;exitY=0.5;exitDx=0;exitDy=0;entryX=1;entryY=0.5;entryDx=0;entryDy=0;" parent="1" source="KmEDqMZdyeYojV_IPIhg-96" target="KmEDqMZdyeYojV_IPIhg-87" edge="1">
          <mxGeometry relative="1" as="geometry">
            <mxPoint x="420" y="310" as="sourcePoint" />
            <mxPoint x="580" y="310" as="targetPoint" />
            <Array as="points">
              <mxPoint x="790" y="-40" />
              <mxPoint x="850" y="-40" />
              <mxPoint x="850" y="115" />
            </Array>
          </mxGeometry>
        </mxCell>
        <mxCell id="KmEDqMZdyeYojV_IPIhg-101" value="" style="endArrow=none;html=1;edgeStyle=orthogonalEdgeStyle;rounded=0;exitX=1;exitY=0.7;exitDx=0;exitDy=0;entryX=1;entryY=0.5;entryDx=0;entryDy=0;" parent="1" edge="1">
          <mxGeometry relative="1" as="geometry">
            <mxPoint x="790" y="-30" as="sourcePoint" />
            <mxPoint x="840" y="230.5" as="targetPoint" />
            <Array as="points">
              <mxPoint x="860" y="-30" />
              <mxPoint x="860" y="231" />
            </Array>
          </mxGeometry>
        </mxCell>
        <mxCell id="KmEDqMZdyeYojV_IPIhg-102" value="" style="endArrow=none;html=1;edgeStyle=orthogonalEdgeStyle;rounded=0;exitX=1;exitY=0.7;exitDx=0;exitDy=0;entryX=1;entryY=0.5;entryDx=0;entryDy=0;" parent="1" source="KmEDqMZdyeYojV_IPIhg-96" target="KmEDqMZdyeYojV_IPIhg-90" edge="1">
          <mxGeometry relative="1" as="geometry">
            <mxPoint x="820" y="9.48" as="sourcePoint" />
            <mxPoint x="870" y="269.98" as="targetPoint" />
            <Array as="points">
              <mxPoint x="790" y="-20" />
              <mxPoint x="870" y="-20" />
              <mxPoint x="870" y="368" />
              <mxPoint x="840" y="368" />
            </Array>
          </mxGeometry>
        </mxCell>
        <mxCell id="KmEDqMZdyeYojV_IPIhg-103" value="" style="endArrow=none;html=1;edgeStyle=orthogonalEdgeStyle;rounded=0;exitX=0.5;exitY=1;exitDx=0;exitDy=0;entryX=1;entryY=0.5;entryDx=0;entryDy=0;" parent="1" source="KmEDqMZdyeYojV_IPIhg-96" target="KmEDqMZdyeYojV_IPIhg-91" edge="1">
          <mxGeometry relative="1" as="geometry">
            <mxPoint x="800" y="-13" as="sourcePoint" />
            <mxPoint x="850" y="378" as="targetPoint" />
            <Array as="points">
              <mxPoint x="720" y="20" />
              <mxPoint x="880" y="20" />
              <mxPoint x="880" y="500" />
            </Array>
          </mxGeometry>
        </mxCell>
        <mxCell id="KmEDqMZdyeYojV_IPIhg-104" value="&lt;font style=&quot;font-size: 20px;&quot;&gt;Back-and-Forth&lt;/font&gt;&lt;div&gt;&lt;font style=&quot;font-size: 20px;&quot;&gt;Calls&lt;/font&gt;&lt;/div&gt;" style="html=1;verticalAlign=bottom;endArrow=block;curved=0;rounded=0;exitX=0.5;exitY=0;exitDx=0;exitDy=0;entryX=0.5;entryY=0;entryDx=0;entryDy=0;" parent="1" source="KmEDqMZdyeYojV_IPIhg-95" target="KmEDqMZdyeYojV_IPIhg-96" edge="1">
          <mxGeometry x="-0.3219" y="2" width="80" relative="1" as="geometry">
            <mxPoint x="540" y="310" as="sourcePoint" />
            <mxPoint x="620" y="310" as="targetPoint" />
            <Array as="points">
              <mxPoint x="1055" y="-120" />
              <mxPoint x="890" y="-120" />
              <mxPoint x="720" y="-120" />
            </Array>
            <mxPoint as="offset" />
          </mxGeometry>
        </mxCell>
        <mxCell id="KmEDqMZdyeYojV_IPIhg-105" value="" style="endArrow=classic;html=1;rounded=0;exitX=1;exitY=0.5;exitDx=0;exitDy=0;entryX=0;entryY=0.5;entryDx=0;entryDy=0;" parent="1" source="KmEDqMZdyeYojV_IPIhg-31" target="KmEDqMZdyeYojV_IPIhg-82" edge="1">
          <mxGeometry width="50" height="50" relative="1" as="geometry">
            <mxPoint x="640" y="320" as="sourcePoint" />
            <mxPoint x="690" y="270" as="targetPoint" />
            <Array as="points">
              <mxPoint x="240" y="39" />
              <mxPoint x="240" y="-10" />
            </Array>
          </mxGeometry>
        </mxCell>
        <mxCell id="KmEDqMZdyeYojV_IPIhg-106" value="" style="endArrow=classic;html=1;rounded=0;exitX=1;exitY=0.5;exitDx=0;exitDy=0;entryX=0;entryY=0.5;entryDx=0;entryDy=0;" parent="1" source="KmEDqMZdyeYojV_IPIhg-32" target="KmEDqMZdyeYojV_IPIhg-83" edge="1">
          <mxGeometry width="50" height="50" relative="1" as="geometry">
            <mxPoint x="210" y="49" as="sourcePoint" />
            <mxPoint x="370" as="targetPoint" />
            <Array as="points">
              <mxPoint x="250" y="65" />
              <mxPoint x="250" y="150" />
            </Array>
          </mxGeometry>
        </mxCell>
        <mxCell id="KmEDqMZdyeYojV_IPIhg-107" value="" style="endArrow=classic;html=1;rounded=0;exitX=1;exitY=0.5;exitDx=0;exitDy=0;entryX=0;entryY=0.5;entryDx=0;entryDy=0;" parent="1" source="KmEDqMZdyeYojV_IPIhg-33" target="KmEDqMZdyeYojV_IPIhg-85" edge="1">
          <mxGeometry width="50" height="50" relative="1" as="geometry">
            <mxPoint x="210" y="75" as="sourcePoint" />
            <mxPoint x="330" y="330" as="targetPoint" />
            <Array as="points">
              <mxPoint x="240" y="91" />
              <mxPoint x="240" y="470" />
            </Array>
          </mxGeometry>
        </mxCell>
        <mxCell id="KmEDqMZdyeYojV_IPIhg-108" value="" style="endArrow=classic;html=1;rounded=0;exitX=1;exitY=0.5;exitDx=0;exitDy=0;entryX=0;entryY=0.5;entryDx=0;entryDy=0;" parent="1" source="KmEDqMZdyeYojV_IPIhg-40" target="KmEDqMZdyeYojV_IPIhg-84" edge="1">
          <mxGeometry width="50" height="50" relative="1" as="geometry">
            <mxPoint x="410" y="370" as="sourcePoint" />
            <mxPoint x="460" y="320" as="targetPoint" />
            <Array as="points">
              <mxPoint x="320" y="200" />
              <mxPoint x="320" y="310" />
            </Array>
          </mxGeometry>
        </mxCell>
        <mxCell id="KmEDqMZdyeYojV_IPIhg-109" value="" style="endArrow=classic;html=1;rounded=0;exitX=1;exitY=0.5;exitDx=0;exitDy=0;entryX=0;entryY=0.583;entryDx=0;entryDy=0;entryPerimeter=0;" parent="1" source="KmEDqMZdyeYojV_IPIhg-41" target="KmEDqMZdyeYojV_IPIhg-83" edge="1">
          <mxGeometry width="50" height="50" relative="1" as="geometry">
            <mxPoint x="210" y="209" as="sourcePoint" />
            <mxPoint x="320" y="180" as="targetPoint" />
            <Array as="points">
              <mxPoint x="280" y="225" />
              <mxPoint x="280" y="160" />
            </Array>
          </mxGeometry>
        </mxCell>
        <mxCell id="KmEDqMZdyeYojV_IPIhg-110" value="" style="endArrow=classic;html=1;rounded=0;exitX=1;exitY=0.5;exitDx=0;exitDy=0;entryX=0.005;entryY=0.41;entryDx=0;entryDy=0;entryPerimeter=0;" parent="1" source="KmEDqMZdyeYojV_IPIhg-42" target="KmEDqMZdyeYojV_IPIhg-84" edge="1">
          <mxGeometry width="50" height="50" relative="1" as="geometry">
            <mxPoint x="210" y="235" as="sourcePoint" />
            <mxPoint x="350" y="250" as="targetPoint" />
            <Array as="points">
              <mxPoint x="280" y="250" />
              <mxPoint x="280" y="299" />
            </Array>
          </mxGeometry>
        </mxCell>
        <mxCell id="KmEDqMZdyeYojV_IPIhg-111" value="" style="endArrow=classic;html=1;rounded=0;exitX=1;exitY=0.5;exitDx=0;exitDy=0;entryX=0.026;entryY=0.332;entryDx=0;entryDy=0;entryPerimeter=0;" parent="1" source="KmEDqMZdyeYojV_IPIhg-54" target="KmEDqMZdyeYojV_IPIhg-83" edge="1">
          <mxGeometry width="50" height="50" relative="1" as="geometry">
            <mxPoint x="210" y="410" as="sourcePoint" />
            <mxPoint x="220" y="410" as="targetPoint" />
            <Array as="points">
              <mxPoint x="300" y="411" />
              <mxPoint x="300" y="130" />
            </Array>
          </mxGeometry>
        </mxCell>
        <mxCell id="KmEDqMZdyeYojV_IPIhg-113" value="" style="endArrow=classic;html=1;rounded=0;exitX=1;exitY=0.5;exitDx=0;exitDy=0;entryX=0;entryY=0.5;entryDx=0;entryDy=0;" parent="1" source="KmEDqMZdyeYojV_IPIhg-52" target="KmEDqMZdyeYojV_IPIhg-86" edge="1">
          <mxGeometry width="50" height="50" relative="1" as="geometry">
            <mxPoint x="210" y="395" as="sourcePoint" />
            <mxPoint x="220" y="359" as="targetPoint" />
            <Array as="points">
              <mxPoint x="280" y="360" />
              <mxPoint x="280" y="630" />
            </Array>
          </mxGeometry>
        </mxCell>
        <mxCell id="KmEDqMZdyeYojV_IPIhg-114" value="" style="endArrow=classic;html=1;rounded=0;exitX=1;exitY=0.5;exitDx=0;exitDy=0;entryX=0.111;entryY=0.832;entryDx=0;entryDy=0;entryPerimeter=0;" parent="1" source="KmEDqMZdyeYojV_IPIhg-44" target="KmEDqMZdyeYojV_IPIhg-83" edge="1">
          <mxGeometry width="50" height="50" relative="1" as="geometry">
            <mxPoint x="220" y="530" as="sourcePoint" />
            <mxPoint x="330" y="240" as="targetPoint" />
            <Array as="points">
              <mxPoint x="260" y="519" />
              <mxPoint x="260" y="190" />
            </Array>
          </mxGeometry>
        </mxCell>
        <mxCell id="KmEDqMZdyeYojV_IPIhg-115" value="" style="endArrow=classic;html=1;rounded=0;exitX=1;exitY=0.5;exitDx=0;exitDy=0;entryX=0.029;entryY=0.667;entryDx=0;entryDy=0;entryPerimeter=0;" parent="1" source="KmEDqMZdyeYojV_IPIhg-45" target="KmEDqMZdyeYojV_IPIhg-86" edge="1">
          <mxGeometry width="50" height="50" relative="1" as="geometry">
            <mxPoint x="210" y="529" as="sourcePoint" />
            <mxPoint x="230" y="540" as="targetPoint" />
            <Array as="points">
              <mxPoint x="320" y="545" />
              <mxPoint x="320" y="650" />
            </Array>
          </mxGeometry>
        </mxCell>
        <mxCell id="KmEDqMZdyeYojV_IPIhg-116" value="" style="endArrow=classic;html=1;rounded=0;exitX=1;exitY=0.5;exitDx=0;exitDy=0;entryX=0;entryY=0.583;entryDx=0;entryDy=0;entryPerimeter=0;" parent="1" source="KmEDqMZdyeYojV_IPIhg-46" target="KmEDqMZdyeYojV_IPIhg-82" edge="1">
          <mxGeometry width="50" height="50" relative="1" as="geometry">
            <mxPoint x="210" y="555" as="sourcePoint" />
            <mxPoint x="360" y="230" as="targetPoint" />
            <Array as="points">
              <mxPoint x="270" y="571" />
              <mxPoint x="270" />
            </Array>
          </mxGeometry>
        </mxCell>
        <mxCell id="KmEDqMZdyeYojV_IPIhg-117" value="" style="endArrow=classic;html=1;rounded=0;exitX=1;exitY=0.5;exitDx=0;exitDy=0;entryX=0;entryY=0.583;entryDx=0;entryDy=0;entryPerimeter=0;" parent="1" source="KmEDqMZdyeYojV_IPIhg-47" target="KmEDqMZdyeYojV_IPIhg-85" edge="1">
          <mxGeometry width="50" height="50" relative="1" as="geometry">
            <mxPoint x="210" y="581" as="sourcePoint" />
            <mxPoint x="220" y="600" as="targetPoint" />
            <Array as="points">
              <mxPoint x="300" y="597" />
              <mxPoint x="300" y="480" />
            </Array>
          </mxGeometry>
        </mxCell>
        <mxCell id="KmEDqMZdyeYojV_IPIhg-118" value="" style="endArrow=classic;html=1;rounded=0;exitX=1;exitY=0.5;exitDx=0;exitDy=0;entryX=0.04;entryY=0.713;entryDx=0;entryDy=0;entryPerimeter=0;" parent="1" source="KmEDqMZdyeYojV_IPIhg-53" target="KmEDqMZdyeYojV_IPIhg-83" edge="1">
          <mxGeometry width="50" height="50" relative="1" as="geometry">
            <mxPoint x="200" y="385" as="sourcePoint" />
            <mxPoint x="365" y="176" as="targetPoint" />
            <Array as="points">
              <mxPoint x="290" y="385" />
              <mxPoint x="290" y="176" />
            </Array>
          </mxGeometry>
        </mxCell>
        <mxCell id="KmEDqMZdyeYojV_IPIhg-119" value="" style="endArrow=classic;html=1;rounded=0;exitX=1;exitY=0.5;exitDx=0;exitDy=0;entryX=0;entryY=0.5;entryDx=0;entryDy=0;" parent="1" source="KmEDqMZdyeYojV_IPIhg-86" target="KmEDqMZdyeYojV_IPIhg-91" edge="1">
          <mxGeometry width="50" height="50" relative="1" as="geometry">
            <mxPoint x="740" y="410" as="sourcePoint" />
            <mxPoint x="790" y="360" as="targetPoint" />
            <Array as="points">
              <mxPoint x="560" y="630" />
              <mxPoint x="560" y="500" />
            </Array>
          </mxGeometry>
        </mxCell>
        <mxCell id="KmEDqMZdyeYojV_IPIhg-120" value="" style="endArrow=classic;html=1;rounded=0;exitX=1;exitY=0.5;exitDx=0;exitDy=0;entryX=0;entryY=0.5;entryDx=0;entryDy=0;" parent="1" source="KmEDqMZdyeYojV_IPIhg-85" target="KmEDqMZdyeYojV_IPIhg-89" edge="1">
          <mxGeometry width="50" height="50" relative="1" as="geometry">
            <mxPoint x="480" y="410" as="sourcePoint" />
            <mxPoint x="600" y="280" as="targetPoint" />
            <Array as="points">
              <mxPoint x="560" y="470" />
              <mxPoint x="560" y="238" />
            </Array>
          </mxGeometry>
        </mxCell>
        <mxCell id="KmEDqMZdyeYojV_IPIhg-122" value="" style="endArrow=classic;html=1;rounded=0;exitX=1;exitY=0.5;exitDx=0;exitDy=0;entryX=0;entryY=0.5;entryDx=0;entryDy=0;" parent="1" source="KmEDqMZdyeYojV_IPIhg-85" target="KmEDqMZdyeYojV_IPIhg-87" edge="1">
          <mxGeometry width="50" height="50" relative="1" as="geometry">
            <mxPoint x="490" y="480" as="sourcePoint" />
            <mxPoint x="610" y="248" as="targetPoint" />
            <Array as="points">
              <mxPoint x="560" y="470" />
              <mxPoint x="560" y="115" />
            </Array>
          </mxGeometry>
        </mxCell>
        <mxCell id="KmEDqMZdyeYojV_IPIhg-123" value="" style="endArrow=classic;html=1;rounded=0;exitX=1;exitY=0.5;exitDx=0;exitDy=0;entryX=0;entryY=0;entryDx=0;entryDy=0;" parent="1" source="KmEDqMZdyeYojV_IPIhg-84" target="KmEDqMZdyeYojV_IPIhg-91" edge="1">
          <mxGeometry width="50" height="50" relative="1" as="geometry">
            <mxPoint x="650" y="340" as="sourcePoint" />
            <mxPoint x="590" y="470" as="targetPoint" />
            <Array as="points">
              <mxPoint x="540" y="310" />
              <mxPoint x="540" y="460" />
            </Array>
          </mxGeometry>
        </mxCell>
        <mxCell id="KmEDqMZdyeYojV_IPIhg-124" value="" style="endArrow=classic;html=1;rounded=0;exitX=1;exitY=0.5;exitDx=0;exitDy=0;entryX=0;entryY=0;entryDx=0;entryDy=0;" parent="1" target="KmEDqMZdyeYojV_IPIhg-90" edge="1">
          <mxGeometry width="50" height="50" relative="1" as="geometry">
            <mxPoint x="480" y="310" as="sourcePoint" />
            <mxPoint x="590" y="330" as="targetPoint" />
            <Array as="points">
              <mxPoint x="540" y="310" />
              <mxPoint x="540" y="330" />
            </Array>
          </mxGeometry>
        </mxCell>
        <mxCell id="KmEDqMZdyeYojV_IPIhg-125" value="" style="endArrow=classic;html=1;rounded=0;exitX=1;exitY=0.5;exitDx=0;exitDy=0;entryX=0;entryY=0;entryDx=0;entryDy=0;" parent="1" target="KmEDqMZdyeYojV_IPIhg-89" edge="1">
          <mxGeometry width="50" height="50" relative="1" as="geometry">
            <mxPoint x="480" y="310" as="sourcePoint" />
            <mxPoint x="600" y="330" as="targetPoint" />
            <Array as="points">
              <mxPoint x="540" y="310" />
              <mxPoint x="540" y="200" />
            </Array>
          </mxGeometry>
        </mxCell>
        <mxCell id="KmEDqMZdyeYojV_IPIhg-126" value="" style="endArrow=classic;html=1;rounded=0;exitX=1;exitY=0.5;exitDx=0;exitDy=0;entryX=0;entryY=0;entryDx=0;entryDy=0;" parent="1" source="KmEDqMZdyeYojV_IPIhg-84" target="KmEDqMZdyeYojV_IPIhg-87" edge="1">
          <mxGeometry width="50" height="50" relative="1" as="geometry">
            <mxPoint x="470" y="210" as="sourcePoint" />
            <mxPoint x="590" y="100" as="targetPoint" />
            <Array as="points">
              <mxPoint x="540" y="310" />
              <mxPoint x="540" y="80" />
            </Array>
          </mxGeometry>
        </mxCell>
        <mxCell id="KmEDqMZdyeYojV_IPIhg-127" value="" style="endArrow=classic;html=1;rounded=0;exitX=1;exitY=0.5;exitDx=0;exitDy=0;entryX=0;entryY=1;entryDx=0;entryDy=0;" parent="1" source="KmEDqMZdyeYojV_IPIhg-83" target="KmEDqMZdyeYojV_IPIhg-91" edge="1">
          <mxGeometry width="50" height="50" relative="1" as="geometry">
            <mxPoint x="640" y="370" as="sourcePoint" />
            <mxPoint x="690" y="320" as="targetPoint" />
            <Array as="points">
              <mxPoint x="520" y="150" />
              <mxPoint x="520" y="540" />
            </Array>
          </mxGeometry>
        </mxCell>
        <mxCell id="KmEDqMZdyeYojV_IPIhg-128" value="" style="endArrow=classic;html=1;rounded=0;exitX=1;exitY=0.5;exitDx=0;exitDy=0;entryX=0;entryY=0.933;entryDx=0;entryDy=0;entryPerimeter=0;" parent="1" source="KmEDqMZdyeYojV_IPIhg-85" target="KmEDqMZdyeYojV_IPIhg-89" edge="1">
          <mxGeometry width="50" height="50" relative="1" as="geometry">
            <mxPoint x="490" y="480" as="sourcePoint" />
            <mxPoint x="610" y="125" as="targetPoint" />
            <Array as="points">
              <mxPoint x="570" y="470" />
              <mxPoint x="570" y="270" />
            </Array>
          </mxGeometry>
        </mxCell>
        <mxCell id="KmEDqMZdyeYojV_IPIhg-129" value="" style="endArrow=classic;html=1;rounded=0;exitX=1;exitY=0.5;exitDx=0;exitDy=0;entryX=0;entryY=1;entryDx=0;entryDy=0;" parent="1" source="KmEDqMZdyeYojV_IPIhg-82" target="KmEDqMZdyeYojV_IPIhg-87" edge="1">
          <mxGeometry width="50" height="50" relative="1" as="geometry">
            <mxPoint x="650" y="170" as="sourcePoint" />
            <mxPoint x="700" y="120" as="targetPoint" />
            <Array as="points">
              <mxPoint x="580" y="-10" />
              <mxPoint x="580" y="150" />
            </Array>
          </mxGeometry>
        </mxCell>
        <mxCell id="KmEDqMZdyeYojV_IPIhg-130" value="" style="endArrow=classic;html=1;rounded=0;exitX=1;exitY=0.5;exitDx=0;exitDy=0;entryX=-0.004;entryY=0.798;entryDx=0;entryDy=0;entryPerimeter=0;" parent="1" target="KmEDqMZdyeYojV_IPIhg-89" edge="1">
          <mxGeometry width="50" height="50" relative="1" as="geometry">
            <mxPoint x="480" y="-10" as="sourcePoint" />
            <mxPoint x="590" y="260" as="targetPoint" />
            <Array as="points">
              <mxPoint x="580" y="-10" />
              <mxPoint x="580" y="260" />
            </Array>
          </mxGeometry>
        </mxCell>
        <mxCell id="KmEDqMZdyeYojV_IPIhg-131" value="" style="endArrow=classic;html=1;rounded=0;entryX=0;entryY=1;entryDx=0;entryDy=0;" parent="1" target="KmEDqMZdyeYojV_IPIhg-90" edge="1">
          <mxGeometry width="50" height="50" relative="1" as="geometry">
            <mxPoint x="480" y="630" as="sourcePoint" />
            <mxPoint x="610" y="510" as="targetPoint" />
            <Array as="points">
              <mxPoint x="550" y="630" />
              <mxPoint x="550" y="405" />
            </Array>
          </mxGeometry>
        </mxCell>
      </root>
    </mxGraphModel>
  </diagram>
</mxfile>
